<svg width="785" height="1078" viewBox="0 0 785 1078" fill="none" xmlns="http://www.w3.org/2000/svg">
<path d="M366.5 385.5L365 378L364.55 373.5L365 371.5L366.5 369.5H370.5C371 369.5 375 370 375.5 370C375.9 370 379 370.333 380.5 370.5L384.5 372L386.5 371V366V362.5L387.5 359L390.5 358L395.5 357.5H402.5C403.3 357.5 405.833 357.167 407 357L410 357.5L410.5 360L409 362.5L405.5 365.5L402.5 368.5L396.5 374.5L395.5 376.5L393.5 378.5L391 381L388 383.5L385 386.5L382 390L379 393L375 397L371 397.5L368.5 396.5L367.5 393L366.5 385.5Z" fill="#C27E00"/>
<path d="M364.5 373L364.55 373.5M364.55 373.5L365 378L366.5 385.5L367.5 393L368.5 396.5L371 397.5L375 397L379 393L382 390L385 386.5L388 383.5L391 381L393.5 378.5L395.5 376.5L396.5 374.5L402.5 368.5L405.5 365.5L409 362.5L410.5 360L410 357.5L407 357C405.833 357.167 403.3 357.5 402.5 357.5C401.7 357.5 397.5 357.5 395.5 357.5L390.5 358L387.5 359L386.5 362.5C386.5 363.5 386.5 365.6 386.5 366C386.5 366.4 386.5 369.5 386.5 371L384.5 372L380.5 370.5C379 370.333 375.9 370 375.5 370C375 370 371 369.5 370.5 369.5C370.1 369.5 367.666 369.5 366.5 369.5L365 371.5L364.55 373.5Z" stroke="black"/>
<path d="M374.458 169.166C332.724 173.7 281.124 205.566 257.924 241.433C236.591 274.1 228.191 307.433 231.791 344.1C234.324 369.7 238.591 383.567 251.258 407.433C266.991 437.3 292.324 464.367 334.191 496.367C350.324 508.633 354.591 513.567 355.391 521.433C356.591 531.833 354.591 534.1 320.324 561.833C299.924 578.5 275.924 602.1 264.991 616.367C240.858 647.833 227.924 689.567 231.524 723.7C232.191 729.967 232.591 735.167 232.324 735.433C231.791 736.233 206.058 725.567 196.191 720.5C179.391 711.967 149.791 700.1 141.924 698.767L136.724 697.967L137.658 702.633C138.858 708.9 136.458 711.567 117.658 726.367C77.6582 757.967 78.3242 757.033 90.4582 761.967C94.4582 763.567 99.5242 765.567 101.791 766.367L105.791 767.833L98.4582 771.967C91.6582 775.833 63.7912 796.633 63.7912 797.833C63.7912 798.9 71.2582 802.1 75.7912 802.9C78.3242 803.433 82.9912 804.5 85.9242 805.167L91.5242 806.633L77.2582 817.3C61.5242 829.3 54.4582 835.567 54.4582 837.567C54.5912 839.833 60.1912 843.3 67.9242 845.833L75.1242 848.233L62.8582 851.167C52.8582 853.7 43.7912 856.9 41.3912 859.033C41.1242 859.3 43.3912 863.167 46.3242 867.7C49.3912 872.367 51.7912 877.7 51.7912 879.833C51.7912 881.833 48.7242 889.967 44.9912 897.967C33.3912 922.767 30.4582 929.033 30.4582 929.7C30.4582 931.167 45.3912 930.233 75.3912 926.767C106.191 923.167 109.258 923.033 178.458 923.033C252.591 923.033 298.191 925.3 315.658 929.567C319.791 930.633 325.658 931.833 328.724 932.367C334.191 933.167 338.324 936.233 336.591 937.967C336.058 938.5 333.791 938.1 331.391 937.167C314.858 930.5 318.991 930.633 79.9242 932.367L7.39122 932.9L3.52421 936.633C-1.40879 941.3 -1.14178 946.9 4.19122 950.9L8.05822 953.7L141.391 953.167C214.724 952.9 283.924 953.167 295.258 953.7L315.658 954.633L323.124 963.3C333.258 975.167 341.258 981.433 353.791 987.567C367.524 994.233 379.258 997.033 393.258 997.033C418.058 997.033 435.391 988.367 457.524 965.033L469.258 952.633L592.858 953.7C744.058 955.167 775.258 954.9 779.524 952.233C786.458 947.7 786.591 938.767 779.791 934.5C776.058 932.367 768.858 932.1 668.858 931.567C523.124 930.767 484.591 930.9 465.124 931.967C449.258 932.767 448.858 932.633 456.458 931.033C460.858 929.967 466.324 928.5 468.458 927.7C470.724 926.767 486.058 925.567 504.458 924.9C522.058 924.367 548.991 923.167 564.324 922.367C583.391 921.433 603.391 921.433 627.258 922.367C678.458 924.367 715.924 926.233 731.124 927.567C738.458 928.233 746.991 928.367 749.924 927.967L755.524 927.033L747.924 914.233C740.191 901.3 735.791 890.233 735.791 883.967C735.791 882.1 737.924 876.233 740.591 870.9C743.258 865.567 744.991 860.5 744.458 859.7C742.991 857.3 736.991 854.767 725.524 851.7C719.391 850.1 714.724 848.233 715.124 847.7C715.524 847.167 718.058 846.233 720.724 845.833C727.391 844.633 733.124 842.367 733.124 840.9C733.124 839.567 730.858 837.567 721.658 830.1C716.591 826.1 695.658 809.167 694.724 808.367C694.591 808.233 699.524 806.5 705.791 804.367C712.058 802.367 717.391 800.367 717.658 799.833C718.458 798.633 713.258 793.033 706.458 787.7C696.724 780.233 683.791 768.633 683.791 767.433C683.791 766.9 684.724 766.367 685.791 766.367C688.458 766.367 701.124 759.967 701.124 758.633C701.124 758.1 698.058 755.167 694.191 752.367C679.658 741.167 656.191 720.633 651.524 714.9C647.924 710.5 646.458 707.433 646.458 704.233C646.458 701.7 646.058 699.7 645.524 699.7C639.791 699.833 623.524 705.567 603.391 714.5C579.524 725.167 556.991 734.367 554.724 734.367C554.191 734.367 554.191 729.7 554.858 723.967C557.524 699.7 552.591 673.033 540.591 648.633C522.591 611.7 502.991 590.633 447.924 548.367C444.058 545.433 438.591 539.833 435.658 535.833C429.658 527.433 428.991 522.367 433.124 514.367C435.924 508.9 438.058 506.9 469.924 480.5C507.524 449.3 528.591 424.1 540.591 396.233C552.458 368.367 556.991 340.9 554.591 312.233C551.258 275.033 536.858 244.5 509.924 217.7C487.391 195.433 468.058 183.433 440.858 175.166C418.458 168.366 398.324 166.5 374.458 169.166ZM429.791 192.366C481.924 207.7 522.458 248.9 532.591 297.033C535.524 310.633 535.924 342.767 533.258 355.033C524.324 397.967 500.591 431.567 451.791 470.633C418.458 497.167 411.258 506.9 411.258 524.367C411.258 531.967 411.924 535.033 414.991 540.9C419.524 549.7 429.791 560.1 445.124 571.7C458.724 581.967 483.124 603.3 492.591 613.167C517.524 639.433 532.324 670.767 535.658 704.233C536.724 715.167 534.591 739.967 532.058 746.367C530.058 751.3 525.124 755.567 505.791 768.5C482.858 783.833 475.924 789.433 435.258 824.633C418.991 838.767 411.791 842.9 399.124 845.167C381.524 848.233 371.924 843.833 346.458 821.033C325.791 802.633 309.124 789.567 282.458 771.033C251.524 749.567 252.724 751.167 250.458 727.3C247.524 694.767 253.391 669.967 271.391 639.033C283.391 618.5 298.591 602.9 336.458 572.767C362.591 551.967 364.991 549.7 369.924 539.7C376.591 526.367 375.258 512.9 366.058 500.1C362.058 494.367 345.258 479.967 323.924 463.833C287.391 436.1 262.858 401.3 253.391 363.7C250.191 350.9 250.191 308.5 253.524 293.033C257.791 272.766 271.924 247.833 288.458 231.3C301.791 217.833 329.658 200.9 349.258 194.366C365.391 188.9 373.924 187.7 396.458 188.233C414.724 188.633 419.524 189.3 429.791 192.366ZM647.924 731.7C654.858 738.367 663.258 745.7 666.724 748.1C670.191 750.5 673.124 752.767 673.124 753.433C673.124 755.033 665.924 757.833 647.124 763.433C627.791 769.3 582.191 785.167 565.791 791.7C544.858 799.967 517.258 815.567 499.524 829.167C493.124 834.1 483.124 840.633 477.524 843.833C453.124 857.167 440.058 867.7 415.391 893.967C411.124 898.5 406.324 902.633 404.858 903.167C403.391 903.567 399.924 903.033 397.124 901.7C392.458 899.567 391.791 899.567 388.991 901.567C382.858 905.833 379.258 904.5 371.124 894.633C361.391 883.033 344.591 868.1 331.124 858.9C325.258 855.033 317.524 849.567 313.791 847.033C310.191 844.367 298.724 837.567 288.458 831.7C278.191 825.967 266.458 818.9 262.458 816.1C238.591 799.3 208.324 785.3 171.791 773.7C164.058 771.3 148.858 766.5 137.791 763.033C126.858 759.567 116.058 756.5 114.058 756.1C111.258 755.567 110.458 754.767 110.991 753.167C112.724 748.5 146.991 721.033 151.391 721.033C152.858 721.033 159.524 723.567 166.058 726.5C172.458 729.567 190.458 737.833 205.791 744.9C236.191 758.9 247.391 765.833 286.458 794.767C331.258 828.1 370.324 863.567 382.058 881.833C387.791 890.767 392.458 897.033 393.524 897.033C393.924 897.033 396.991 892.5 400.458 886.9C410.324 871.167 435.391 846.1 472.324 815.3C518.591 776.633 564.058 748.1 604.991 732.367C611.258 729.967 620.324 726.1 625.124 723.967C629.924 721.7 634.191 719.833 634.591 719.833C634.991 719.7 640.991 725.167 647.924 731.7ZM146.458 783.567C166.191 789.033 193.124 797.833 209.791 804.233C223.658 809.567 254.458 823.967 254.458 825.033C254.458 826.633 242.858 825.033 228.458 821.7C179.924 809.967 162.724 806.233 149.124 804.367C118.591 800.1 114.991 799.567 103.524 796.9C95.7912 795.033 91.7912 793.567 91.7912 792.367C91.7912 790.1 98.0582 785.167 107.124 780.367C115.524 775.833 120.058 776.233 146.458 783.567ZM677.791 781.833C681.524 783.833 686.458 786.9 688.858 788.767L693.391 792.233L690.191 793.833C686.458 795.7 659.124 801.3 635.124 805.033C608.991 809.033 574.458 816.633 556.458 822.367C522.991 833.167 514.324 835.7 511.391 835.7C507.791 835.567 547.791 815.3 571.124 805.433C580.724 801.433 594.724 796.367 602.458 794.233C610.191 791.967 622.324 788.367 629.391 786.233C640.724 782.767 660.324 778.9 668.458 778.5C669.924 778.367 674.191 779.967 677.791 781.833ZM167.124 823.567C181.791 825.7 200.058 829.033 207.791 830.767C215.524 832.633 227.258 835.167 233.791 836.367C246.191 838.5 266.591 843.7 277.124 847.3C287.124 850.633 328.858 873.967 338.324 881.3C350.191 890.767 369.258 909.167 368.324 910.5C366.991 912.767 364.324 911.7 350.591 903.033C342.858 898.233 336.191 894.367 335.524 894.367C334.858 894.367 330.458 891.967 325.658 889.033C315.391 882.767 293.258 872.9 277.124 867.433C240.191 854.767 175.658 843.833 113.791 839.7C88.5912 837.967 78.4582 836.233 78.4582 833.7C78.4582 831.7 90.4582 822.1 95.7912 819.7C101.658 817.3 138.058 819.167 167.124 823.567ZM689.791 821.3C694.724 823.833 709.124 834.5 709.124 835.567C709.124 837.833 693.524 839.833 660.458 841.7C619.524 843.967 606.058 845.833 573.124 853.033C538.458 860.767 507.924 869.3 489.791 876.5C475.391 882.1 441.658 900.1 428.058 909.3C422.591 913.033 418.458 913.433 418.458 910.367C418.458 905.567 450.991 877.567 467.258 868.367C490.991 854.9 509.791 848.633 574.458 833.033C625.524 820.633 678.191 815.3 689.791 821.3ZM187.524 862.9C233.258 870.1 269.124 878.1 282.991 884.233C287.258 886.1 294.724 888.9 299.524 890.367C304.458 891.833 312.324 895.3 317.124 897.967C321.924 900.767 328.858 904.367 332.458 906.1C339.658 909.567 346.858 914.367 346.191 915.167C345.924 915.433 342.058 914.1 337.791 912.367C333.391 910.633 322.591 907.567 313.791 905.567C304.991 903.7 293.258 900.367 287.658 898.367C276.191 894.1 248.591 888.233 212.858 882.5C189.524 878.767 186.324 878.5 141.124 878.233C105.258 878.1 90.3242 878.5 79.3912 879.967C62.9912 882.233 63.7912 882.633 61.9242 870.767L61.1242 865.167L66.7242 863.567C83.3912 859.033 91.2582 858.5 128.458 858.9C160.458 859.3 168.858 859.833 187.524 862.9ZM707.391 861.7C713.124 862.767 719.524 864.367 721.524 865.167C724.991 866.633 725.258 867.167 724.458 871.567C722.858 880.1 721.924 880.5 704.191 878.367C685.391 876.1 659.924 875.7 631.791 877.167C607.524 878.367 595.924 879.833 562.458 885.167C524.591 891.433 523.391 891.7 459.791 911.967C452.858 914.233 443.924 917.433 439.924 919.167C426.191 925.3 424.991 922.233 438.191 914.633C458.858 902.5 468.724 898.5 507.791 885.7C534.458 877.033 556.458 871.167 572.458 868.5C603.791 863.167 620.458 860.9 635.124 859.7C656.191 858.233 694.191 859.167 707.391 861.7ZM210.458 895.833C239.791 899.033 249.391 900.367 261.791 903.167C273.658 905.833 288.058 910.367 289.791 911.833C291.124 913.167 288.591 912.767 271.791 909.433C266.324 908.367 253.124 907.3 242.458 907.033C224.324 906.633 199.524 905.3 189.124 904.233C186.591 903.967 167.924 903.433 147.791 903.033C111.391 902.367 100.324 903.033 83.7912 907.033C79.7912 907.967 74.7242 909.167 72.4582 909.7C68.8582 910.5 68.7242 910.767 71.1242 911.7C72.9912 912.367 71.2582 912.9 65.1242 913.7C60.3242 914.233 55.3912 915.167 54.1912 915.833C52.3242 916.9 51.7912 916.633 51.7912 914.767C51.7912 910.633 55.7912 906.233 61.7912 903.7C88.3242 892.367 148.858 889.167 210.458 895.833ZM670.458 894.367C694.324 896.1 717.258 900.233 723.658 903.833C726.458 905.433 729.524 908.233 730.324 910.1C732.324 914.367 731.524 915.033 727.924 911.833C724.591 909.033 716.458 907.3 691.124 904.367C665.791 901.567 631.258 901.567 595.791 904.367C591.791 904.633 579.524 905.3 568.458 905.833C538.991 907.167 538.458 907.3 529.791 908.767C517.124 911.033 500.191 912.1 501.791 910.633C505.924 906.5 547.658 897.567 577.124 894.5C592.991 892.9 648.991 892.767 670.458 894.367ZM407.524 927.167C418.191 932.5 430.458 948.1 430.458 956.5C430.458 961.433 421.791 969.567 413.524 972.233C395.791 977.967 379.391 977.567 366.458 971.033C360.058 967.833 351.791 959.567 351.791 956.5C351.791 953.833 364.324 936.633 369.391 932.367C380.458 922.9 395.124 920.9 407.524 927.167Z" fill="black"/>
<path d="M316.656 226.395C314.679 230.231 317.315 230.871 322.589 228.952C334.455 224.476 336.433 220 327.204 220C323.248 220 318.634 222.558 316.656 226.395Z" fill="black"/>
<path d="M298.2 239.873C291.933 245.339 282 260.167 282 263.5C282 264.433 283.1 264.533 283.5 264C284.033 263.6 284.466 265.073 286.6 266.139C291.8 268.806 294.2 267.339 304.733 254.139C316.2 240.006 316.733 236.939 308.2 235.206C304.866 234.539 303.266 235.339 298.2 239.873Z" fill="black"/>
<path d="M272.007 279.444C268.007 287.311 265.874 297.844 267.607 300.911C269.34 304.111 273.34 305.711 276.94 304.511C279.34 303.844 287.74 286.244 287.74 281.844C287.74 279.577 283.34 276.511 278.14 275.311C274.94 274.511 274.14 275.044 272.007 279.444Z" fill="black"/>
<path d="M317.124 610.366C308.324 619.566 306.191 625.033 309.924 629.166C314.591 634.366 320.324 631.433 330.591 618.633C337.924 609.433 338.324 608.366 336.724 605.833C335.524 603.966 333.124 602.9 329.924 602.633C325.391 602.233 324.324 602.9 317.124 610.366Z" fill="black"/>
<path d="M294.858 638.633C288.324 645.833 287.658 650.1 292.458 655.166L295.791 658.766L298.991 655.833C300.724 654.1 303.658 650.1 305.391 646.9C307.791 642.366 308.191 640.5 306.991 638.766C304.724 635.033 298.191 635.033 294.858 638.633Z" fill="black"/>
<path d="M388.59 619.168C386.081 622.782 386.639 629.81 389.566 633.625C391.656 636.437 392.911 636.637 395.141 634.83C399.044 632.019 398.904 623.786 395.002 619.971C391.238 616.155 390.681 616.155 388.59 619.168Z" fill="#FF9900"/>
<path d="M388.59 604.832C386.081 601.218 386.639 594.19 389.566 590.375C391.656 587.563 392.911 587.363 395.141 589.17C399.044 591.981 398.904 600.214 395.002 604.029C391.238 607.845 390.681 607.845 388.59 604.832Z" fill="#FF9900"/>
<path d="M388.522 648.439C386.122 650.839 386.655 655.506 389.455 658.039C391.455 659.906 392.655 660.039 394.788 658.839C398.522 656.972 398.388 651.506 394.655 648.972C391.055 646.439 390.522 646.439 388.522 648.439Z" fill="#FF9900"/>
<path d="M277.258 665.833C274.324 669.566 271.258 681.3 271.924 686.366C272.591 690.9 278.058 693.566 281.791 691.166C284.058 689.7 291.524 672.5 291.658 668.1C291.791 666.233 285.124 662.366 281.924 662.366C280.858 662.366 278.724 663.966 277.258 665.833Z" fill="black"/>
<path d="M405.391 689.966C404.591 690.233 404.057 691.166 404.591 691.833C404.991 692.5 404.191 693.033 402.991 693.033C400.191 693.033 391.391 695.966 390.457 697.166C390.057 697.7 386.991 699.433 383.524 701.033C379.924 702.633 377.124 704.766 377.124 705.7C377.124 706.633 376.591 707.7 375.791 707.966C375.124 708.1 374.457 709.833 374.591 711.7C374.591 713.566 374.724 717.433 374.724 720.366C374.857 726.5 372.057 738.366 370.457 738.366C369.924 738.366 368.991 740.366 368.457 742.633C367.924 745.3 367.257 746.233 366.857 745.166C366.324 743.833 365.524 744.5 364.324 747.166C362.591 750.633 362.591 750.766 363.124 747.7C363.791 744.366 363.791 744.5 362.057 747.966C359.524 753.433 354.191 758.633 352.991 756.9C352.457 755.833 351.791 756.233 351.257 757.966C350.857 759.3 348.724 761.566 346.457 762.766C344.324 764.1 342.591 765.833 342.857 766.766C342.991 767.7 341.791 768.233 340.191 768.233C338.457 768.1 337.124 768.766 337.124 769.833C337.124 770.9 336.191 771.7 335.124 771.7C331.791 771.7 326.457 774.766 326.457 776.633C326.457 777.7 326.991 778.233 327.657 777.7C328.324 777.3 329.391 777.7 329.924 778.5C330.457 779.566 330.324 779.7 329.391 779.166C328.457 778.633 327.791 779.033 327.791 779.966C327.791 781.3 327.524 781.3 326.591 779.833C325.791 778.5 324.857 779.166 323.257 782.366C322.191 784.766 321.524 787.3 322.057 788.233C323.924 791.166 337.124 802.633 346.457 809.433C351.657 813.3 358.191 817.966 360.857 819.966C368.057 825.166 376.857 826.9 396.457 826.9C412.591 827.033 414.191 826.766 420.457 823.433C424.191 821.566 428.591 818.366 430.457 816.366C436.324 809.833 483.924 774.366 497.124 766.5C512.057 757.566 515.524 752.1 521.791 728.366C525.391 714.233 525.391 711.7 521.257 711.7C519.791 711.7 511.657 709.566 503.124 707.033C494.591 704.5 475.391 699.3 460.191 695.7C436.591 689.966 430.991 689.033 419.924 689.166C412.857 689.166 406.324 689.566 405.391 689.966Z" fill="#FF9900"/>
<path d="M380.036 689.812C380.836 690.078 381.37 691.012 380.836 691.678C380.436 692.345 381.236 692.878 382.436 692.878C385.236 692.878 394.036 695.812 394.97 697.012C395.37 697.545 398.436 699.278 401.903 700.878C405.503 702.478 408.303 704.612 408.303 705.545C408.303 706.478 408.836 707.545 409.636 707.812C410.303 707.945 410.97 709.678 410.836 711.545C410.836 713.412 410.703 717.278 410.703 720.212C410.57 726.345 413.37 738.212 414.97 738.212C415.503 738.212 416.436 740.212 416.97 742.478C417.503 745.145 418.17 746.078 418.57 745.012C419.103 743.678 419.903 744.345 421.103 747.012C422.836 750.478 422.836 750.612 422.303 747.545C421.636 744.212 421.636 744.345 423.37 747.812C425.903 753.278 431.236 758.478 432.436 756.745C432.97 755.678 433.636 756.078 434.17 757.812C434.57 759.145 436.703 761.412 438.97 762.612C441.103 763.945 442.836 765.678 442.57 766.612C442.436 767.545 443.636 768.078 445.236 768.078C446.97 767.945 448.303 768.612 448.303 769.678C448.303 770.745 449.236 771.545 450.303 771.545C453.636 771.545 458.97 774.612 458.97 776.478C458.97 777.545 458.436 778.078 457.77 777.545C457.103 777.145 456.036 777.545 455.503 778.345C454.97 779.412 455.103 779.545 456.036 779.012C456.97 778.478 457.636 778.878 457.636 779.812C457.636 781.145 457.903 781.145 458.836 779.678C459.636 778.345 460.57 779.012 462.17 782.212C463.236 784.612 463.903 787.145 463.37 788.078C461.503 791.012 448.303 802.478 438.97 809.278C433.77 813.145 427.236 817.812 424.57 819.812C417.37 825.012 408.57 826.745 388.97 826.745C372.836 826.878 371.236 826.612 364.97 823.278C361.236 821.412 356.836 818.212 354.97 816.212C349.103 809.678 301.503 774.212 288.303 766.345C273.37 757.412 269.903 751.945 263.636 728.212C260.036 714.078 260.036 711.545 264.17 711.545C265.636 711.545 273.77 709.412 282.303 706.878C290.836 704.345 310.036 699.145 325.236 695.545C348.836 689.812 354.436 688.878 365.503 689.012C372.57 689.012 379.103 689.412 380.036 689.812Z" fill="#FF9900"/>
<path d="M648.324 384.633C629.791 413.033 625.391 421.567 617.124 445.967C607.658 473.7 603.391 488.633 593.124 531.033C586.991 556.367 587.524 555.033 583.391 554.767C577.124 554.367 575.258 559.167 574.724 577.033C574.191 591.167 574.458 592.633 577.124 595.967C578.724 598.1 580.858 599.7 581.924 599.7C582.991 599.7 583.791 600.9 583.791 602.367C583.791 605.833 573.258 625.967 565.391 637.433C558.858 647.033 558.858 650.367 565.391 647.833C570.191 645.967 575.791 638.767 585.391 621.7L593.791 606.767L599.258 607.433C606.324 608.233 614.991 604.367 622.991 596.9C636.991 584.1 658.991 530.5 664.591 495.7C667.391 478.1 667.391 439.167 664.591 421.167C661.124 398.5 655.524 381.033 651.924 381.033C651.258 381.033 649.658 382.633 648.324 384.633ZM645.924 427.967C644.991 453.033 640.191 487.967 634.458 511.167C625.791 547.033 601.658 595.433 595.524 589.3C594.191 587.967 594.191 587.033 595.524 585.033C596.324 583.567 602.458 570.5 608.991 555.967C624.324 522.1 630.724 497.833 637.124 450.367C639.791 430.633 644.858 406.367 646.191 406.367C646.591 406.367 646.458 416.1 645.924 427.967Z" fill="#FF9900"/>
<path d="M122.366 384.6C140.899 413 145.299 421.533 153.566 445.933C163.033 473.667 167.299 488.6 177.566 531C183.699 556.333 183.166 555 187.299 554.733C193.566 554.333 195.433 559.133 195.966 577C196.499 591.133 196.233 592.6 193.566 595.933C191.966 598.067 189.833 599.667 188.766 599.667C187.699 599.667 186.899 600.867 186.899 602.333C186.899 605.8 197.433 625.933 205.299 637.4C211.833 647 211.833 650.333 205.299 647.8C200.499 645.933 194.899 638.733 185.299 621.667L176.899 606.733L171.433 607.4C164.366 608.2 155.699 604.333 147.699 596.867C133.699 584.067 111.699 530.467 106.099 495.667C103.299 478.067 103.299 439.133 106.099 421.133C109.566 398.467 115.166 381 118.766 381C119.433 381 121.033 382.6 122.366 384.6ZM124.766 427.933C125.699 453 130.499 487.933 136.233 511.133C144.899 547 169.033 595.4 175.166 589.267C176.499 587.933 176.499 587 175.166 585C174.366 583.533 168.233 570.467 161.699 555.933C146.366 522.067 139.966 497.8 133.566 450.333C130.899 430.6 125.833 406.333 124.499 406.333C124.099 406.333 124.233 416.067 124.766 427.933Z" fill="#FF9900"/>
<path d="M392 712C403.598 712 413 705.061 413 696.5C413 687.94 403.598 681 392 681C380.402 681 371 687.94 371 696.5C371 705.061 380.402 712 392 712Z" fill="#FF9900"/>
<path d="M398 460.5C398 457.463 395.538 455 392.5 455C389.463 455 387 457.463 387 460.5V597.5C387 600.538 389.463 603 392.5 603C395.538 603 398 600.538 398 597.5V460.5Z" fill="url(#paint0_linear_13_5092)"/>
<path d="M386.12 236.97L282.97 340.12C279.846 343.245 279.846 348.31 282.97 351.434L386.12 454.584C389.244 457.708 394.31 457.708 397.434 454.584L500.584 351.434C503.708 348.31 503.708 343.244 500.584 340.12L397.434 236.97C394.31 233.846 389.244 233.846 386.12 236.97Z" fill="#D9D9D9" stroke="black" stroke-width="16"/>
<path d="M435.142 422.769L429.862 419.919L394 486.362L399.28 489.212L435.142 422.769Z" fill="black"/>
<path d="M404.948 466.692L398.988 466L391.999 526.234L397.959 526.926L404.948 466.692Z" fill="black"/>
<path d="M418.145 444.19L412.466 442.253L392.888 499.644L398.567 501.581L418.145 444.19Z" fill="black"/>
<path d="M452.913 408.637L448.228 404.889L410.347 452.239L415.032 455.987L452.913 408.637Z" fill="black"/>
<path d="M408.684 454.59L398.993 452.122L393.317 474.411L403.007 476.879L408.684 454.59Z" fill="black"/>
<path d="M358.831 438.961L364.111 436.111L392.913 489.473L387.633 492.322L358.831 438.961Z" fill="black"/>
<path d="M379.964 468.803L385.924 468.111L392.913 528.345L386.953 529.037L379.964 468.803Z" fill="black"/>
<path d="M367.793 443.574L373.544 441.864L390.827 499.987L385.075 501.697L367.793 443.574Z" fill="black"/>
<path d="M332 410.748L336.685 407L374.566 454.35L369.881 458.098L332 410.748Z" fill="black"/>
<path d="M376.23 456.701L385.92 454.233L391.597 476.522L381.906 478.99L376.23 456.701Z" fill="black"/>
<path d="M390.581 251.243L297.242 344.581C296.461 345.362 296.461 346.628 297.242 347.409L390.581 440.747C391.362 441.529 392.628 441.529 393.409 440.747L486.747 347.409C487.528 346.628 487.528 345.362 486.747 344.581L393.409 251.243C392.628 250.462 391.362 250.462 390.581 251.243Z" fill="#D9D9D9" stroke="black" stroke-width="4"/>
<path d="M375.966 327.735L339.775 363.927C337.822 365.879 337.822 369.045 339.775 370.998L365.926 397.149C367.879 399.102 371.045 399.102 372.997 397.149L409.189 360.958C411.141 359.005 411.141 355.839 409.189 353.887L383.037 327.735C381.085 325.782 377.919 325.782 375.966 327.735Z" fill="#FF9900"/>
<path d="M319.366 346.014C319.194 346.584 319.248 347.551 319.531 348.12C320.634 350.479 324.678 349.442 324.686 346.824C324.691 345.23 323.527 344.18 321.848 344.214C320.282 344.19 319.883 344.476 319.366 346.014Z" fill="black"/>
<path d="M326.692 339.524C326.52 340.094 326.574 341.062 326.856 341.63C327.959 343.989 332.004 342.952 332.012 340.334C332.016 338.74 330.853 337.691 329.173 337.724C327.608 337.7 327.209 337.986 326.692 339.524Z" fill="black"/>
<path d="M332.692 333.525C332.52 334.094 332.574 335.062 332.856 335.63C333.959 337.989 338.004 336.952 338.012 334.334C338.016 332.74 336.853 331.691 335.173 331.724C333.608 331.7 333.209 331.986 332.692 333.525Z" fill="black"/>
<path d="M333.93 334.282C333.911 334.793 334.138 335.435 334.402 335.699C335.498 336.795 337.538 335.851 337.482 334.245C337.444 333.187 336.745 332.563 335.63 332.582C334.44 332.563 333.911 333.092 333.93 334.282Z" fill="black"/>
<path d="M353.84 312.826C354.197 314.259 355.439 314.935 356.978 314.546C358.34 314.207 398.151 274.205 398.547 272.786C398.917 271.457 397.77 269.855 396.383 269.772C395.51 269.75 393.434 271.698 374.472 290.659L353.498 311.633L353.84 312.826Z" fill="black"/>
<path d="M487.645 968.085C484.36 969.351 486.089 970.707 491.967 971.521C497.154 972.244 740.574 972.108 746.107 971.385C751.293 970.707 752.676 968.763 748.7 967.723C746.107 967.09 733.832 967 618.172 967H490.238L487.645 968.085Z" fill="#FF9900"/>
<path d="M28.6453 968.085C25.3603 969.351 27.0893 970.707 32.9673 971.521C38.1543 972.244 281.574 972.108 287.107 971.385C292.293 970.707 293.676 968.763 289.7 967.723C287.107 967.09 274.832 967 159.172 967H31.2383L28.6453 968.085Z" fill="#FF9900"/>
<path d="M366.219 347.678C365.652 349.189 365.671 351.286 366.238 352.647C366.861 354.139 368.769 355.859 370.47 356.426C373.7 357.502 377.385 355.783 378.764 352.552C379.35 351.173 379.236 348.339 378.518 347.017C375.703 341.783 368.202 342.18 366.219 347.678ZM371.679 346.185C373.852 345.826 375.458 346.752 376.157 348.736C376.875 350.852 375.873 352.987 373.757 353.743C371.188 354.65 368.543 352.685 368.599 349.907C368.637 348.056 369.96 346.431 371.679 346.185Z" fill="black"/>
<path d="M391.185 321.188C391.155 322.235 391.693 322.829 392.853 323.196C393.646 323.422 394.156 322.968 408.412 308.712L423.15 293.974L422.896 292.814C422.671 291.738 422.558 291.625 421.482 291.399L420.322 291.146L405.725 305.742C392.858 318.61 391.185 320.395 391.185 321.188Z" fill="black"/>
<path d="M401.185 331.188C401.155 332.235 401.693 332.829 402.853 333.196C403.646 333.422 404.156 332.969 418.412 318.712L433.15 303.974L432.896 302.814C432.671 301.738 432.558 301.625 431.482 301.399L430.322 301.146L415.725 315.742C402.858 328.61 401.185 330.395 401.185 331.188Z" fill="black"/>
<path d="M409.185 340.188C409.155 341.235 409.693 341.829 410.853 342.196C411.646 342.422 412.156 341.969 426.412 327.712L441.15 312.974L440.896 311.814C440.671 310.738 440.558 310.625 439.482 310.399L438.322 310.146L423.725 324.742C410.858 337.61 409.185 339.395 409.185 340.188Z" fill="black"/>
<path d="M418.185 350.188C418.155 351.236 418.693 351.83 419.853 352.196C420.646 352.422 421.156 351.969 435.412 337.712L450.15 322.974L449.896 321.814C449.671 320.738 449.558 320.625 448.482 320.399L447.322 320.146L432.725 334.742C419.858 347.61 418.185 349.395 418.185 350.188Z" fill="black"/>
<path d="M375.021 411.197C375.02 412.203 376.051 412.796 377.026 412.285C378.021 411.793 457.16 332.653 457.652 331.658C458.164 330.683 457.57 329.653 456.565 329.653C455.785 329.66 455.238 330.206 415.406 370.039C375.574 409.871 375.028 410.417 375.021 411.197Z" fill="black"/>
<path d="M384.713 420.369C384.583 421.481 385.647 422.004 386.792 421.313C388.155 420.516 403.587 405.009 404.122 403.869C404.675 402.749 404.138 401.888 403.026 402.018C402.254 402.11 401.749 402.577 393.515 410.811C385.226 419.1 384.813 419.551 384.713 420.369Z" fill="black"/>
<path d="M411.637 393.281C411.694 394.169 412.147 394.585 413.054 394.585C413.772 394.585 414.056 394.339 422.652 385.743C430.342 378.053 431.494 376.825 431.608 376.183C431.778 375.332 431.116 374.596 430.228 374.652C429.624 374.69 428.66 375.578 420.574 383.664C412.128 392.11 411.599 392.677 411.637 393.281Z" fill="black"/>
<path d="M436.641 367.914C436.698 368.839 437.34 369.406 438.172 369.255C438.814 369.142 440.496 367.536 452.55 355.482C465.964 342.067 466.21 341.822 466.21 341.066C466.21 340.121 465.718 339.592 464.868 339.649C464.245 339.668 462.979 340.896 450.396 353.479C437.284 366.591 436.603 367.309 436.641 367.914Z" fill="black"/>
<path d="M387 365.999L387.5 358.999L390.5 357.499H395.5L404 356.999L410.5 357.499L410 360.499L408.5 362.499L404.5 366.499L399.5 371.499L395.5 373.999L389 371.999L387 370.499V365.999Z" fill="#B0A8B9" stroke="black"/>
<path d="M366 382.499L365 372.999L365.5 370.499L368 369.499L371.5 369.999L378 370.499L384.5 371.499L393 372.999L397.5 373.499L395 375.999L392 379.499L386.5 384.999L379.5 391.499L377.5 394.499L372.741 397.999H369L367.5 394.499L366 382.499Z" fill="#B0A8B9" stroke="black"/>
<path d="M338.785 363.889C337.727 366.08 337.614 368.083 338.445 370.766L338.842 372.069L351.746 385.087C364.461 397.878 364.707 398.123 366.105 398.766C368.032 399.635 370.734 399.767 372.756 399.068L374.362 398.52L392.405 380.477L410.448 362.434L410.996 360.903C411.978 358.107 411.601 355.122 409.9 352.628C408.748 350.947 386.548 328.784 384.81 327.575C382.165 325.762 378.896 325.403 376.138 326.65C374.739 327.292 374.362 327.67 357.017 345.014C341.449 360.62 339.276 362.868 338.785 363.889ZM376.648 329.54C377.914 328.841 379.444 328.596 381.05 328.879L382.429 329.125L395.088 341.67C403.798 350.304 407.86 354.48 408.105 354.99L408.427 355.727L399.112 355.745C388.173 355.764 387.493 355.915 385.981 358.409C385.358 359.449 385.282 360.167 385.244 365.003L385.188 370.463L377.063 369.216C372.586 368.517 368.391 367.988 367.692 368.045C365.689 368.158 363.819 369.802 363.328 371.918C363.177 372.598 363.687 376.887 364.82 384.256C365.803 390.604 366.426 395.573 366.237 395.573C366.048 395.573 360.38 389.98 353.598 383.16L341.298 370.747L340.939 369.33C340.542 367.799 340.675 366.42 341.355 364.984C341.903 363.794 375.25 330.334 376.648 329.54ZM368.013 370.747C368.637 370.69 394.086 374.601 394.275 374.79C394.351 374.866 389.628 379.627 383.827 385.389C373.53 395.573 373.19 395.875 371.981 396.329C369.544 397.217 369.827 397.953 367.806 384.974C366.804 378.531 366.011 373.014 366.048 372.712C366.105 372.428 366.426 371.88 366.804 371.503C367.182 371.125 367.73 370.804 368.013 370.747ZM399.131 358.561H408.729L408.54 359.467C408.389 360.299 407.935 360.79 402.551 366.288L396.713 372.239L392.386 371.578L388.059 370.917V365.476C388.078 360.355 388.135 359.996 388.815 359.316C389.533 358.598 389.892 358.579 399.131 358.561Z" fill="black"/>
<g filter="url(#filter0_d_13_5092)">
<path d="M79.7712 1055.36L81.9312 1058.8L67.2112 1067.84C64.9712 1068.53 62.7842 1068.99 60.6512 1069.2C58.5712 1069.47 56.3312 1069.6 53.9312 1069.6C48.0112 1069.6 42.7582 1068.24 38.1712 1065.52C33.6382 1062.8 30.0912 1059.07 27.5312 1054.32C25.0242 1049.52 23.7712 1044.08 23.7712 1038C23.7712 1031.76 25.6642 1026 29.4512 1020.72C33.2382 1015.39 37.9582 1011.2 43.6112 1008.16C49.2642 1005.07 54.6512 1003.52 59.7712 1003.52C62.8112 1003.52 66.3582 1003.92 70.4112 1004.72C74.4642 1005.52 77.4242 1006.37 79.2912 1007.28V1022.8H76.2512C70.9182 1014.43 63.8782 1010.24 55.1312 1010.24C51.2912 1010.24 47.7982 1011.28 44.6512 1013.36C41.5042 1015.39 39.0242 1018.24 37.2112 1021.92C35.4512 1025.55 34.5712 1029.63 34.5712 1034.16C34.5712 1039.39 35.4242 1044.16 37.1312 1048.48C38.8912 1052.8 41.5582 1056.27 45.1312 1058.88C48.7042 1061.49 53.1312 1062.8 58.4112 1062.8C60.7582 1062.8 62.7042 1062.72 64.2512 1062.56C65.7982 1062.4 67.6382 1061.89 69.7712 1061.04V1042.16L57.4512 1038.72L59.0512 1035.52H87.3712V1038L79.7712 1044V1055.36ZM128.664 1024.72C132.184 1024.72 135.33 1025.65 138.104 1027.52C140.93 1029.33 143.117 1031.81 144.664 1034.96C146.264 1038.11 147.064 1041.57 147.064 1045.36C147.064 1049.47 145.81 1053.33 143.304 1056.96C140.797 1060.53 137.65 1063.41 133.864 1065.6C130.13 1067.73 126.504 1068.8 122.984 1068.8C119.464 1068.8 116.29 1067.89 113.464 1066.08C110.69 1064.21 108.504 1061.71 106.904 1058.56C105.357 1055.41 104.584 1051.95 104.584 1048.16C104.584 1044.05 105.837 1040.21 108.344 1036.64C110.85 1033.01 113.97 1030.13 117.704 1028C121.49 1025.81 125.144 1024.72 128.664 1024.72ZM124.024 1031.44C117.997 1031.44 114.984 1035.73 114.984 1044.32C114.984 1049.39 116.077 1053.63 118.264 1057.04C120.45 1060.4 123.57 1062.08 127.624 1062.08C133.65 1062.08 136.664 1057.76 136.664 1049.12C136.664 1044.11 135.57 1039.92 133.384 1036.56C131.197 1033.15 128.077 1031.44 124.024 1031.44ZM185.775 1068H163.455V1065.52L170.575 1059.92V1010.72L163.455 1005.76V1003.28L177.135 998.16H180.175V1062L187.375 1064.8L185.775 1068ZM250.907 1068H235.707V1062.24L228.267 1068.16C226.56 1068.59 224.507 1068.8 222.107 1068.8C218.587 1068.8 215.413 1067.89 212.587 1066.08C209.813 1064.21 207.627 1061.71 206.027 1058.56C204.48 1055.41 203.707 1051.95 203.707 1048.16C203.707 1044.05 204.96 1040.21 207.467 1036.64C209.973 1033.01 213.093 1030.13 216.827 1028C220.613 1025.81 224.267 1024.72 227.787 1024.72C230.72 1024.72 233.387 1025.55 235.787 1027.2V1010.72L228.667 1005.76V1003.28L242.347 998.16H245.387V1062L252.507 1064.8L250.907 1068ZM226.187 1062C227.787 1062 229.307 1061.79 230.747 1061.36C232.24 1060.88 233.893 1060 235.707 1058.72V1040.48C235.387 1037.81 234.133 1035.65 231.947 1034C229.813 1032.29 226.88 1031.44 223.147 1031.44C217.12 1031.44 214.107 1035.73 214.107 1044.32C214.107 1049.33 215.147 1053.55 217.227 1056.96C219.307 1060.32 222.293 1062 226.187 1062ZM294.273 1068.16C292.14 1068.59 289.58 1068.8 286.593 1068.8C283.073 1068.8 279.9 1067.89 277.073 1066.08C274.3 1064.21 272.113 1061.71 270.513 1058.56C268.966 1055.41 268.193 1051.95 268.193 1048.16C268.193 1044.05 269.446 1040.21 271.953 1036.64C274.46 1033.01 277.58 1030.13 281.313 1028C285.1 1025.81 288.753 1024.72 292.273 1024.72C297.34 1024.72 301.26 1026.72 304.033 1030.72C306.86 1034.72 308.273 1040 308.273 1046.56H278.673C278.993 1051.09 280.22 1054.8 282.353 1057.68C284.54 1060.56 287.5 1062 291.233 1062C294.7 1062 299.633 1059.31 306.033 1053.92L308.433 1056.96L294.273 1068.16ZM287.633 1031.44C281.873 1031.44 278.86 1035.39 278.593 1043.28H297.313C296.833 1040.4 296.326 1038.21 295.793 1036.72C295.313 1035.17 294.433 1033.92 293.153 1032.96C291.926 1031.95 290.086 1031.44 287.633 1031.44ZM375.919 1068.08H360.719V1041.12C360.719 1038.19 360.266 1036.13 359.359 1034.96C358.452 1033.79 356.826 1033.2 354.479 1033.2C352.719 1033.2 350.959 1033.52 349.199 1034.16C347.492 1034.8 345.466 1036.03 343.119 1037.84V1062.08L350.319 1064.88L348.719 1068.08H326.399V1065.6L333.519 1060V1037.36L326.399 1033.2V1030.72L340.079 1024L342.719 1034.4L354.079 1025.36C355.199 1024.93 356.666 1024.72 358.479 1024.72C362.106 1024.72 364.986 1025.84 367.119 1028.08C369.252 1030.27 370.319 1033.25 370.319 1037.04V1062L377.519 1064.88L375.919 1068.08ZM498.323 1068.08H474.003V1065.6L481.523 1059.68V1015.44L460.163 1068.08H455.763L434.563 1014.88V1060.64L442.963 1064.88L441.363 1068.08H422.643V1065.6L430.163 1059.68V1012.8L421.843 1008.32L423.443 1005.12H440.803L460.803 1055.36L480.723 1005.12H499.123V1007.6L491.523 1013.52V1061.92L499.923 1064.88L498.323 1068.08ZM543.617 1068.16C541.483 1068.59 538.923 1068.8 535.937 1068.8C532.417 1068.8 529.243 1067.89 526.417 1066.08C523.643 1064.21 521.457 1061.71 519.857 1058.56C518.31 1055.41 517.537 1051.95 517.537 1048.16C517.537 1044.05 518.79 1040.21 521.297 1036.64C523.803 1033.01 526.923 1030.13 530.657 1028C534.443 1025.81 538.097 1024.72 541.617 1024.72C546.683 1024.72 550.603 1026.72 553.377 1030.72C556.203 1034.72 557.617 1040 557.617 1046.56H528.017C528.337 1051.09 529.563 1054.8 531.697 1057.68C533.883 1060.56 536.843 1062 540.577 1062C544.043 1062 548.977 1059.31 555.377 1053.92L557.777 1056.96L543.617 1068.16ZM536.977 1031.44C531.217 1031.44 528.203 1035.39 527.937 1043.28H546.657C546.177 1040.4 545.67 1038.21 545.137 1036.72C544.657 1035.17 543.777 1033.92 542.497 1032.96C541.27 1031.95 539.43 1031.44 536.977 1031.44ZM650.943 1068H635.743V1041.04C635.743 1038.11 635.29 1036.05 634.383 1034.88C633.476 1033.71 631.85 1033.12 629.503 1033.12C627.85 1033.12 626.223 1033.44 624.623 1034.08C623.023 1034.67 621.13 1035.87 618.943 1037.68V1062L626.143 1064.8L624.543 1068H609.343V1041.04C609.343 1038.11 608.89 1036.05 607.983 1034.88C607.076 1033.71 605.45 1033.12 603.103 1033.12C601.45 1033.12 599.823 1033.44 598.223 1034.08C596.623 1034.67 594.73 1035.87 592.543 1037.68V1062L599.743 1064.8L598.143 1068H575.823V1065.52L582.943 1059.92V1037.28L575.823 1033.12V1030.64L589.503 1023.92L592.063 1034.16L602.703 1025.28C603.823 1024.85 605.29 1024.64 607.103 1024.64C610.196 1024.64 612.756 1025.49 614.783 1027.2C616.81 1028.85 618.09 1031.15 618.623 1034.08L629.023 1025.36C630.143 1024.93 631.61 1024.72 633.423 1024.72C637.05 1024.72 639.93 1025.84 642.063 1028.08C644.196 1030.27 645.263 1033.25 645.263 1037.04V1062L652.543 1064.8L650.943 1068ZM692.148 1024.72C695.668 1024.72 698.815 1025.65 701.588 1027.52C704.415 1029.33 706.601 1031.81 708.148 1034.96C709.748 1038.11 710.548 1041.57 710.548 1045.36C710.548 1049.47 709.295 1053.33 706.788 1056.96C704.281 1060.53 701.135 1063.41 697.348 1065.6C693.615 1067.73 689.988 1068.8 686.468 1068.8C682.948 1068.8 679.775 1067.89 676.948 1066.08C674.175 1064.21 671.988 1061.71 670.388 1058.56C668.841 1055.41 668.068 1051.95 668.068 1048.16C668.068 1044.05 669.321 1040.21 671.828 1036.64C674.335 1033.01 677.455 1030.13 681.188 1028C684.975 1025.81 688.628 1024.72 692.148 1024.72ZM687.508 1031.44C681.481 1031.44 678.468 1035.73 678.468 1044.32C678.468 1049.39 679.561 1053.63 681.748 1057.04C683.935 1060.4 687.055 1062.08 691.108 1062.08C697.135 1062.08 700.148 1057.76 700.148 1049.12C700.148 1044.11 699.055 1039.92 696.868 1036.56C694.681 1033.15 691.561 1031.44 687.508 1031.44ZM754.3 1059.36C754.3 1057.87 753.473 1056.51 751.82 1055.28C750.166 1054 747.633 1052.48 744.22 1050.72C741.446 1049.28 739.206 1048.03 737.5 1046.96C735.793 1045.89 734.326 1044.67 733.1 1043.28C731.926 1041.84 731.34 1040.29 731.34 1038.64C731.34 1036.72 732.14 1034.67 733.74 1032.48C735.34 1030.29 737.313 1028.45 739.66 1026.96C742.006 1025.47 744.193 1024.72 746.22 1024.72C748.673 1024.72 751.5 1025.04 754.7 1025.68C757.953 1026.27 760.3 1026.93 761.74 1027.68V1040H758.7C756.993 1036.69 755.02 1034.13 752.78 1032.32C750.54 1030.45 748.246 1029.52 745.9 1029.52C744.246 1029.52 742.913 1029.97 741.9 1030.88C740.886 1031.73 740.38 1032.83 740.38 1034.16C740.38 1035.81 741.233 1037.31 742.94 1038.64C744.7 1039.92 747.34 1041.44 750.86 1043.2C753.58 1044.59 755.766 1045.79 757.42 1046.8C759.073 1047.81 760.46 1049.01 761.58 1050.4C762.753 1051.73 763.34 1053.23 763.34 1054.88C763.34 1056.85 762.486 1058.93 760.78 1061.12C759.126 1063.25 757.073 1065.07 754.62 1066.56C752.22 1068.05 750.006 1068.8 747.98 1068.8C745.366 1068.8 742.246 1068.51 738.62 1067.92C735.046 1067.28 732.486 1066.59 730.94 1065.84V1053.52H733.98C735.846 1056.83 738.06 1059.41 740.62 1061.28C743.18 1063.09 745.766 1064 748.38 1064C750.14 1064 751.553 1063.55 752.62 1062.64C753.74 1061.73 754.3 1060.64 754.3 1059.36Z" fill="#17121D"/>
</g>
<path d="M132.748 334.51L129.512 349.362L128.024 348.925L125.523 343.305L115.827 344.462L112.25 360.877L120.444 367.544L125.197 359.79L126.903 361.331L123.666 376.182L122.179 375.746L119.63 370.112L91.5057 347.149L90.1662 341.35L127.051 336.997L131.042 332.97L132.748 334.51ZM95.0823 346.899L110.304 359.266L113.477 344.708L95.0823 346.899Z" fill="#FF9900"/>
<path d="M141.435 297.769C141.427 298.606 141.244 299.545 140.885 300.585C139.984 303.2 138.671 304.821 136.947 305.446C135.204 306.027 132.957 305.678 130.205 304.401L116.962 298.254L115.203 303.359L113.343 302.496L106.416 288.863L107.035 287.066L117.058 291.718L119.991 283.21L121.851 284.073L118.918 292.582L132.705 298.981C135.154 300.118 136.802 299.457 137.65 296.999C137.878 296.337 137.959 295.644 137.893 294.919C137.838 294.162 137.621 293.166 137.24 291.929L139.453 291.311L141.435 297.769Z" fill="#FF9900"/>
<path d="M150.104 274.582L144.723 287.453L143.372 286.692L142.039 280.87L129.317 273.707L124.899 276.292L123.548 275.531L124.058 266.073L124.791 264.32L145.486 275.972L148.747 272.678L150.104 274.582ZM110.485 259.914C110.871 258.991 111.506 258.418 112.389 258.193C113.285 257.938 114.213 258.08 115.171 258.62C115.839 258.996 116.388 259.571 116.818 260.345C117.219 261.102 117.459 261.902 117.537 262.744C117.616 263.586 117.527 264.315 117.269 264.93C116.884 265.852 116.243 266.441 115.346 266.697C114.463 266.921 113.542 266.764 112.584 266.224C111.916 265.848 111.381 265.281 110.98 264.524C110.55 263.75 110.296 262.942 110.217 262.099C110.139 261.257 110.228 260.529 110.485 259.914Z" fill="#FF9900"/>
<path d="M174.628 225.76L169.579 233.808L156.707 222.935C155.306 221.752 154.175 221.164 153.314 221.171C152.452 221.178 151.632 221.803 150.853 223.045C150.304 223.921 149.916 224.911 149.69 226.016C149.439 227.1 149.383 228.586 149.523 230.475L161.135 240.283L164.863 237.6L165.86 239.738L160.812 247.786L147.939 236.913C146.538 235.73 145.407 235.142 144.546 235.149C143.685 235.156 142.864 235.78 142.085 237.023C141.536 237.898 141.148 238.889 140.923 239.994C140.671 241.078 140.615 242.564 140.755 244.453L152.367 254.261L156.095 251.578L157.092 253.716L149.679 265.533L148.495 264.533L148.186 258.505L137.376 249.374L133.025 251.467L131.841 250.466L133.175 240.513L138.915 243.288L138.209 234.073C138.377 233.308 138.762 232.445 139.364 231.485C140.392 229.847 141.649 228.836 143.137 228.451C144.6 228.045 146.12 228.292 147.698 229.193L146.988 220.17C147.156 219.405 147.542 218.542 148.144 217.582C149.348 215.662 150.839 214.589 152.618 214.363C154.37 214.115 156.15 214.755 157.958 216.282L169.876 226.348L173.631 223.623L174.628 225.76Z" fill="#FF9900"/>
<path d="M187.503 205.412C186.859 206.652 185.958 208.004 184.8 209.469C183.436 211.195 181.818 212.337 179.946 212.897C178.073 213.407 176.152 213.337 174.186 212.688C172.24 212.013 170.456 210.813 168.836 209.088C167.078 207.218 165.921 204.854 165.363 201.997C164.783 199.116 164.76 196.275 165.294 193.473C165.826 190.62 166.774 188.331 168.138 186.605C170.102 184.12 172.477 183.11 175.264 183.572C178.071 184.008 180.879 185.72 183.686 188.708L172.213 203.221C174.277 205.129 176.339 206.216 178.398 206.482C180.478 206.722 182.242 205.927 183.689 204.096C185.032 202.396 185.792 198.751 185.967 193.159L188.198 193.367L187.503 205.412ZM169.215 191.941C166.983 194.765 167.504 198.04 170.778 201.766L178.034 192.588C176.616 191.511 175.484 190.764 174.638 190.345C173.79 189.876 172.912 189.736 172.005 189.927C171.096 190.067 170.166 190.738 169.215 191.941Z" fill="#FF9900"/>
<path d="M205.523 181.792L196.154 192.128L195.172 190.929L195.942 184.924L176.455 161.137L171.502 162.036L170.52 160.837L174.234 152.027L175.511 150.62L200.796 181.485L204.927 179.504L205.523 181.792Z" fill="#FF9900"/>
<path d="M221.869 164.017C221.012 165.119 219.881 166.286 218.478 167.516C216.823 168.966 215.023 169.799 213.076 170.013C211.136 170.178 209.253 169.766 207.428 168.777C205.629 167.766 204.083 166.269 202.792 164.285C201.392 162.134 200.671 159.606 200.631 156.702C200.573 153.77 201.057 150.976 202.084 148.32C203.118 145.615 204.463 143.537 206.117 142.087C208.499 140 211.023 139.432 213.69 140.385C216.383 141.316 218.847 143.499 221.084 146.935L207.172 159.13C208.868 161.372 210.709 162.808 212.693 163.438C214.703 164.046 216.585 163.581 218.34 162.043C219.969 160.614 221.37 157.171 222.541 151.713L224.705 152.317L221.869 164.017ZM206.228 147.519C203.52 149.891 203.45 153.2 206.016 157.444L214.814 149.732C213.607 148.422 212.623 147.485 211.863 146.922C211.11 146.31 210.269 146.016 209.34 146.041C208.418 146.015 207.381 146.508 206.228 147.519Z" fill="#FF9900"/>
<path d="M243.177 138.682C242.744 137.855 241.927 137.401 240.726 137.318C239.511 137.206 237.776 137.279 235.523 137.536C233.689 137.74 232.182 137.854 231.001 137.879C229.82 137.905 228.715 137.755 227.686 137.43C226.669 137.056 225.92 136.412 225.44 135.497C224.883 134.434 224.694 133.009 224.876 131.222C225.057 129.435 225.53 127.705 226.294 126.032C227.058 124.359 227.957 123.157 228.992 122.426C230.244 121.541 231.78 120.699 233.599 119.898C235.43 119.05 236.821 118.572 237.773 118.466L241.351 125.284L239.8 126.38C237.968 125.166 236.218 124.461 234.548 124.266C232.862 124.041 231.42 124.351 230.223 125.198C229.379 125.794 228.83 126.526 228.576 127.393C228.307 128.231 228.366 129.019 228.753 129.757C229.233 130.672 230.103 131.19 231.361 131.313C232.631 131.386 234.42 131.275 236.728 130.979C238.519 130.766 239.983 130.641 241.122 130.605C242.26 130.57 243.316 130.734 244.291 131.097C245.277 131.412 246.01 132.026 246.49 132.941C247.063 134.033 247.232 135.492 246.996 137.318C246.772 139.095 246.25 140.839 245.432 142.551C244.641 144.243 243.728 145.454 242.694 146.185C241.36 147.128 239.682 148.091 237.661 149.075C235.651 150.009 234.143 150.549 233.137 150.694L229.558 143.876L231.11 142.779C233.023 143.936 234.904 144.569 236.753 144.679C238.586 144.759 240.17 144.327 241.503 143.385C242.402 142.75 242.991 141.989 243.273 141.103C243.581 140.197 243.549 139.39 243.177 138.682Z" fill="#FF9900"/>
<path d="M267.212 122.389C266.856 121.527 266.08 120.992 264.884 120.786C263.676 120.549 261.929 120.441 259.645 120.461C257.786 120.472 256.264 120.429 255.077 120.331C253.891 120.233 252.797 119.97 251.796 119.542C250.811 119.067 250.122 118.352 249.727 117.397C249.269 116.288 249.216 114.858 249.568 113.109C249.92 111.36 250.559 109.697 251.484 108.122C252.409 106.546 253.425 105.45 254.532 104.835C255.872 104.089 257.493 103.415 259.393 102.813C261.31 102.163 262.751 101.835 263.715 101.829L266.656 108.946L264.995 109.869C263.274 108.478 261.585 107.598 259.929 107.232C258.26 106.834 256.785 106.992 255.503 107.705C254.6 108.207 253.98 108.874 253.643 109.706C253.293 110.506 253.277 111.292 253.596 112.062C253.99 113.017 254.813 113.62 256.063 113.872C257.33 114.077 259.134 114.153 261.477 114.1C263.293 114.074 264.774 114.103 265.919 114.186C267.064 114.269 268.107 114.541 269.05 115.002C270.009 115.415 270.686 116.1 271.081 117.055C271.551 118.195 271.582 119.655 271.171 121.437C270.778 123.172 270.089 124.843 269.105 126.451C268.151 128.043 267.12 129.147 266.013 129.762C264.586 130.556 262.812 131.335 260.691 132.098C258.587 132.814 257.023 133.191 256 133.23L253.06 126.113L254.72 125.19C256.529 126.533 258.355 127.354 260.199 127.655C262.03 127.924 263.659 127.662 265.086 126.868C266.047 126.333 266.711 125.642 267.077 124.794C267.473 123.93 267.518 123.129 267.212 122.389Z" fill="#FF9900"/>
<path d="M310.582 80.611L304.799 108.945L301.205 110.18L289.119 94.2559L284.053 93.1507L283.67 91.6488L290.718 84.801L294.381 91.4992L303.834 103.955L306.88 87.4686L299.391 84.93L299.843 82.6671L310.199 79.1091L310.582 80.611Z" fill="#FF9900"/>
<path d="M345.792 96.0671L336.492 98.005L335.827 93.7062L330.976 99.2564C330.364 99.6559 329.569 99.9577 328.59 100.162C325.783 100.746 323.634 100.463 322.142 99.3119C320.683 98.1539 319.801 96.5866 319.495 94.6101C319.311 93.4242 319.555 92.1664 320.225 90.8367C320.895 89.5069 321.934 88.1683 323.342 86.8207L334.404 84.5156L333.915 81.3532C333.584 79.2121 332.778 77.8158 331.498 77.1643C330.251 76.5061 328.649 76.381 326.691 76.789C324.668 77.2106 322.379 78.9627 319.824 82.0452L318.065 80.4736L324.242 73.3719C325.506 72.8363 327.052 72.3782 328.88 71.9974C331.849 71.3786 334.265 71.6404 336.126 72.7828C337.982 73.8922 339.126 75.8469 339.56 78.6469L341.792 93.0752L346.465 93.8866L345.792 96.0671ZM329.506 95.6353C331.497 95.2205 333.491 93.8528 335.49 91.5321L334.718 86.5415L326.054 88.3468C325.711 88.9623 325.483 89.5539 325.369 90.1218C325.287 90.6829 325.295 91.2763 325.392 91.9022C325.58 93.121 326.053 94.1106 326.811 94.8708C327.564 95.5981 328.462 95.8529 329.506 95.6353Z" fill="#FF9900"/>
<path d="M379.232 92.0064L369.752 92.615L369.504 87.4209L363.42 93.1218C362.734 93.433 361.825 93.6249 360.694 93.6975C358.432 93.8428 356.604 93.2755 355.208 91.9959C353.811 90.6829 353.056 88.8444 352.943 86.4804L352.374 74.544L347.809 72.232L347.735 70.6838L356.068 65.9407L357.964 65.819L358.811 83.5988C358.899 85.4301 359.243 86.6938 359.843 87.39C360.444 88.0862 361.476 88.3873 362.939 88.2933C363.97 88.2271 364.976 87.9788 365.957 87.5485C366.936 87.0849 368.08 86.2433 369.39 85.0237L368.84 73.4868L364.275 71.1748L364.201 69.6266L372.534 64.8836L374.43 64.7618L375.561 88.4849L380.135 89.9446L379.232 92.0064Z" fill="#FF9900"/>
<path d="M396.487 91.3923L382.539 91.1798L382.556 89.6299L387.045 86.1979L387.393 55.4498L382.979 52.2823L382.996 50.7324L391.581 47.6628L393.481 47.6917L393.03 87.5892L397.509 89.4076L396.487 91.3923Z" fill="#FF9900"/>
<path d="M416.953 92.5274C416.169 92.7067 415.23 92.7345 414.137 92.6106C411.388 92.2991 409.428 91.356 408.256 89.7813C407.121 88.1771 406.68 85.8637 406.934 82.8411L408.159 68.2925L402.793 67.6844L402.965 65.6417L413.332 55.7004L415.219 55.9144L414.293 66.9254L423.235 67.9389L423.063 69.9817L414.121 68.9682L412.846 84.1146C412.619 86.8051 413.798 88.2968 416.381 88.5896C417.077 88.6684 417.752 88.594 418.406 88.3664C419.094 88.1425 419.95 87.703 420.975 87.0479L422.306 89.1101L416.953 92.5274Z" fill="#FF9900"/>
<path d="M463.992 55.3579C464.894 55.5988 465.889 55.9678 466.977 56.465C468.104 56.9381 468.89 57.3373 469.334 57.6625L467.836 65.2154L466 64.7251C465.454 63.2022 464.676 61.9099 463.666 60.8483C462.662 59.7539 461.565 59.0476 460.373 58.7294C458.892 58.3337 457.632 58.703 456.593 59.8371C455.586 60.9798 454.827 62.8427 454.314 65.4257L452.982 72.1448L461.677 74.4671L461.278 76.4779L452.583 74.1556L448.915 92.6454L455.26 96.5606L453.905 98.2643L438.012 94.0197L438.313 92.4993L443.294 90.2144L446.786 72.6074L441.038 71.0721L441.436 69.0613L447.185 70.5966L448.051 66.2316C448.55 63.714 449.696 61.5242 451.49 59.662C453.284 57.7999 455.325 56.4859 457.613 55.7199C459.933 54.9625 462.06 54.8419 463.992 55.3579Z" fill="#FF9900"/>
<path d="M482.362 78.9246C484.391 79.7733 486.033 81.0891 487.286 82.8719C488.58 84.6358 489.381 86.6433 489.69 88.8944C490.029 91.1583 489.848 93.4204 489.146 95.6806C488.385 98.1318 486.945 100.138 484.828 101.698C482.72 103.226 480.372 104.187 477.783 104.579C475.235 104.952 472.946 104.715 470.916 103.866C468.887 103.017 467.225 101.711 465.931 99.947C464.678 98.1642 463.881 96.1408 463.542 93.8768C463.234 91.6257 463.43 89.3701 464.132 87.1099C464.893 84.6587 466.328 82.6688 468.435 81.1403C470.553 79.58 472.886 78.6132 475.434 78.2399C478.023 77.8477 480.332 78.076 482.362 78.9246ZM478.441 81.817C474.965 80.3639 472.432 82.2 470.841 87.3253C469.901 90.3495 469.746 93.1439 470.374 95.7085C471.012 98.2412 472.5 99.9962 474.837 100.973C478.312 102.427 480.851 100.575 482.452 95.4174C483.381 92.425 483.527 89.6625 482.889 87.1297C482.261 84.5652 480.778 82.7942 478.441 81.817Z" fill="#FF9900"/>
<path d="M516.945 93.9238C517.911 94.4507 518.646 95.1918 519.153 96.147C519.659 97.1022 519.916 98.1859 519.925 99.398L515.47 101.664L513.802 100.753C513.998 99.9173 513.998 99.2569 513.801 98.7724C513.646 98.2729 513.305 97.8794 512.779 97.592C512.135 97.2408 511.372 97.0509 510.49 97.0225C509.65 96.9791 508.577 97.2043 507.269 97.6979L501.673 111.507L507.01 116.853L505.381 118.227L490.941 110.348L491.523 108.911L496.744 107.799L502.058 94.685L499.129 90.1438L499.711 88.7073L508.793 88.9101L507.844 95.3523L514.4 92.931C515.114 93.0191 515.969 93.3346 516.964 93.8775L516.945 93.9238Z" fill="#FF9900"/>
<path d="M560.346 124.501L537.761 138.208L522.918 143.136L522.187 140.664C524.707 140.09 526.735 139.441 528.27 138.719C529.831 138.017 531.165 137.115 532.272 136.013C533.363 134.939 534.448 133.482 535.529 131.643L538.313 114.586L536.034 109.373L536.819 108.036L545.652 109.72L543.318 117.408L540.554 134.04L553.504 125.783L550.746 117.475L552.543 116.371L561.131 123.165L560.346 124.501Z" fill="#FF9900"/>
<path d="M579.445 137.463C580.992 139.028 582.024 140.893 582.542 143.058C583.103 145.221 583.133 147.432 582.631 149.692C582.153 151.975 581.203 154.063 579.781 155.955C578.239 158.007 576.237 159.382 573.774 160.08C571.331 160.752 568.867 160.792 566.383 160.202C563.942 159.608 561.948 158.529 560.401 156.965C558.854 155.4 557.801 153.536 557.239 151.374C556.722 149.208 556.702 146.984 557.18 144.7C557.682 142.44 558.644 140.364 560.065 138.472C561.607 136.42 563.599 135.059 566.042 134.387C568.505 133.689 570.957 133.637 573.398 134.23C575.883 134.821 577.899 135.899 579.445 137.463ZM574.884 138.759C572.236 136.08 569.3 136.886 566.076 141.176C564.174 143.708 563.063 146.313 562.742 148.99C562.442 151.641 563.182 153.867 564.963 155.669C567.611 158.348 570.556 157.529 573.8 153.211C575.682 150.706 576.773 148.128 577.074 145.477C577.395 142.8 576.665 140.56 574.884 138.759Z" fill="#FF9900"/>
<path d="M596.915 195.294L591.112 187.773L594.719 184.026L587.165 182.817C586.552 182.455 585.9 181.825 585.207 180.927C583.823 179.133 583.197 177.215 583.331 175.175C583.487 173.111 584.386 171.226 586.028 169.521L594.316 160.912L593.401 155.516L594.476 154.399L602.611 158.143L603.772 159.648L591.427 172.471C590.155 173.792 589.438 174.94 589.276 175.917C589.113 176.894 589.48 177.963 590.376 179.125C591.007 179.943 591.755 180.616 592.62 181.144C593.508 181.647 594.763 182.032 596.383 182.297L604.394 173.977L603.479 168.58L604.554 167.464L612.689 171.208L613.85 172.712L597.378 189.822L598.913 194.645L596.915 195.294Z" fill="#FF9900"/>
<path d="M630.765 198.053C631.356 198.98 631.648 199.991 631.641 201.085C631.633 202.178 631.35 203.269 630.791 204.357L625.868 204.276L624.847 202.674C625.408 202.019 625.716 201.428 625.772 200.902C625.871 200.382 625.76 199.869 625.437 199.363C625.043 198.744 624.471 198.214 623.719 197.772C623.011 197.336 621.975 197.029 620.61 196.852L609.301 206.555L611.431 213.858L609.376 214.317L600.536 200.444L601.713 199.435L606.76 200.908L617.499 191.695L617.082 186.249L618.258 185.24L626.04 189.715L622.205 195.027L629.022 195.961C629.601 196.378 630.194 197.064 630.803 198.02L630.765 198.053Z" fill="#FF9900"/>
<path d="M636.759 263.982L632.983 255.265L636.092 253.451L631.048 251.049C630.394 250.204 629.769 249.094 629.172 247.717C628.298 245.699 627.999 243.593 628.276 241.401C628.595 239.223 629.405 237.179 630.706 235.271C632.021 233.393 633.7 231.858 635.745 230.665C637.962 229.372 640.346 228.882 642.898 229.194C645.479 229.49 647.809 230.372 649.888 231.842C652.009 233.325 653.507 235.076 654.381 237.095C655.11 238.777 655.326 240.567 655.03 242.464L663.927 237.274L664.836 231.629L666.175 230.848L672.338 237.082L673.093 238.825L638.627 258.927L638.884 263.892L636.759 263.982ZM633.857 247.916C634.255 248.834 634.747 249.638 635.335 250.33C635.966 251.035 636.851 251.706 637.993 252.343L647.84 246.599C649.201 245.576 650.055 244.177 650.405 242.403C650.796 240.642 650.528 238.691 649.601 236.55C648.104 233.093 645.037 232.717 640.401 235.421C637.695 236.999 635.678 238.923 634.352 241.19C633.055 243.441 632.89 245.683 633.857 247.916Z" fill="#FF9900"/>
<path d="M644.152 284.032L639.44 270.901L640.836 270.227L645.491 272.893L658.636 266.541L659.924 261.004L661.32 260.329L667.089 266.984L667.731 268.773L646.347 279.106L646.291 284.103L644.152 284.032ZM680.156 259.235C680.494 260.176 680.44 261.104 679.993 262.019C679.558 262.966 678.845 263.678 677.855 264.157C677.165 264.491 676.425 264.59 675.638 264.455C674.88 264.306 674.202 263.989 673.606 263.504C673.009 263.019 672.598 262.463 672.373 261.836C672.035 260.895 672.084 259.951 672.519 259.004C672.966 258.089 673.684 257.392 674.674 256.914C675.365 256.58 676.089 256.488 676.847 256.637C677.635 256.772 678.327 257.081 678.923 257.566C679.52 258.051 679.931 258.607 680.156 259.235Z" fill="#FF9900"/>
<path d="M654.568 316.844L652.249 307.632L656.369 306.236L650.776 302.185C650.36 301.624 650.031 300.858 649.787 299.889C649.087 297.109 649.257 294.858 650.298 293.137C651.346 291.449 652.817 290.284 654.711 289.642C655.848 289.257 657.074 289.297 658.391 289.763C659.707 290.229 661.05 291.072 662.419 292.292L665.177 303.251L668.208 302.224C670.26 301.528 671.57 300.471 672.137 299.05C672.713 297.662 672.757 295.999 672.269 294.059C671.765 292.055 669.962 289.999 666.863 287.893L668.296 285.828L675.452 290.981C676.03 292.188 676.546 293.697 677.002 295.508C677.742 298.449 677.605 300.969 676.591 303.066C675.609 305.153 673.776 306.652 671.093 307.561L657.265 312.247L656.706 317.172L654.568 316.844ZM654.202 300.076C654.699 302.048 656.115 303.866 658.453 305.529L663.236 303.909L661.076 295.326C660.465 295.077 659.882 294.941 659.328 294.919C658.783 294.928 658.21 295.034 657.61 295.238C656.442 295.634 655.509 296.283 654.811 297.186C654.145 298.078 653.942 299.042 654.202 300.076Z" fill="#FF9900"/>
<path d="M686.966 335.808C687.146 336.893 687.012 337.912 686.564 338.865C686.115 339.818 685.408 340.642 684.444 341.335L679.853 338.987L679.541 337.113C680.332 336.8 680.86 336.425 681.126 335.991C681.429 335.582 681.531 335.081 681.432 334.49C681.312 333.766 680.988 333.037 680.461 332.303C679.972 331.594 679.122 330.846 677.912 330.06L663.372 333.318L662.423 340.693L660.308 340.144L657.607 323.917L659.12 323.578L663.266 327.202L677.073 324.109L678.88 319.15L680.392 318.812L685.894 326.327L680.147 329.201L686.173 333.172C686.548 333.804 686.829 334.679 687.015 335.797L686.966 335.808Z" fill="#FF9900"/>
<path d="M690.082 377.466L664.313 367.177L650.449 358.033L651.81 355.998C653.967 357.703 655.842 358.967 657.435 359.788C659.032 360.643 660.623 361.197 662.211 361.45C663.765 361.706 665.605 361.734 667.729 361.535L682.475 353.829L684.841 348.938L686.384 348.794L691.159 356.931L683.774 359.531L669.362 367.005L684.437 372.672L688.804 365.586L690.865 366.397L691.625 377.321L690.082 377.466Z" fill="#FF9900"/>
<defs>
<filter id="filter0_d_13_5092" x="19.7712" y="998.16" width="747.569" height="79.44" filterUnits="userSpaceOnUse" color-interpolation-filters="sRGB">
<feFlood flood-opacity="0" result="BackgroundImageFix"/>
<feColorMatrix in="SourceAlpha" type="matrix" values="0 0 0 0 0 0 0 0 0 0 0 0 0 0 0 0 0 0 127 0" result="hardAlpha"/>
<feOffset dy="4"/>
<feGaussianBlur stdDeviation="2"/>
<feComposite in2="hardAlpha" operator="out"/>
<feColorMatrix type="matrix" values="0 0 0 0 0 0 0 0 0 0 0 0 0 0 0 0 0 0 0.25 0"/>
<feBlend mode="normal" in2="BackgroundImageFix" result="effect1_dropShadow_13_5092"/>
<feBlend mode="normal" in="SourceGraphic" in2="effect1_dropShadow_13_5092" result="shape"/>
</filter>
<linearGradient id="paint0_linear_13_5092" x1="392.5" y1="455" x2="392.5" y2="603" gradientUnits="userSpaceOnUse">
<stop offset="0.47"/>
<stop offset="0.665" stop-color="#FF9900"/>
<stop offset="1" stop-color="#FF9900"/>
</linearGradient>
</defs>
</svg>
